; NON-PLATED HOLES START AT T1
; THROUGH (PLATED) HOLES START AT T100
M48
INCH
T100C0.043288
T101C0.038000
T102C0.045031
T103C0.015748
T104C0.045046
T105C0.040000
T106C0.098425
T107C0.039370
T108C0.036000
%
T100
X012202Y004678
X011202Y004678
X014202Y004678
X010202Y004678
X013202Y004678
T101
X006487Y058977
X007487Y058977
X008487Y058977
X009487Y058977
X011987Y013477
X011987Y014477
T102
X011987Y037977
X011987Y042977
X011987Y032977
X004487Y005977
X011987Y025477
T103
X006840Y010552
X006840Y027592
X008280Y056152
X000599Y027352
T104
X011987Y041008
X011987Y023508
X011987Y036008
X011987Y031008
X002518Y005977
T105
X007987Y035977
X007987Y034977
X007987Y031977
X007987Y032977
X007987Y033977
X007987Y036977
T106
X007487Y030227
X007487Y038727
T107
X003978Y038327
X001987Y031977
X005356Y038327
X001987Y030977
X001987Y036977
X001987Y029977
X001987Y037977
X001987Y033977
X001987Y038977
X001987Y032977
X001987Y034977
X001987Y035977
T108
X007987Y017477
X001987Y019477
X001987Y013477
X007987Y012477
X001987Y017477
X007987Y016477
X007987Y021477
X001987Y023477
X007987Y022477
X001987Y014477
X007987Y014477
X001987Y016477
X007987Y020477
X001987Y022477
X007987Y019477
X007987Y026477
X001987Y025477
X001987Y024477
X001987Y020477
X007987Y018477
X001987Y021477
X001987Y015477
X007987Y015477
X007987Y024477
X007987Y025477
X001987Y012477
X007987Y023477
X007987Y013477
X001987Y018477
X001987Y026477
T00
M30
