G04 MADE WITH FRITZING*
G04 WWW.FRITZING.ORG*
G04 DOUBLE SIDED*
G04 HOLES PLATED*
G04 CONTOUR ON CENTER OF CONTOUR VECTOR*
%ASAXBY*%
%FSLAX23Y23*%
%MOIN*%
%OFA0B0*%
%SFA1.0B1.0*%
%ADD10C,0.078000*%
%ADD11C,0.075000*%
%ADD12C,0.070000*%
%ADD13C,0.087268*%
%ADD14C,0.087253*%
%ADD15C,0.138425*%
%ADD16C,0.086000*%
%ADD17C,0.076000*%
%ADD18C,0.039370*%
%ADD19R,0.078000X0.078000*%
%ADD20R,0.069972X0.070000*%
%ADD21C,0.024000*%
%LNCOPPER0*%
G90*
G70*
G54D10*
X649Y3897D03*
X549Y3897D03*
X449Y3897D03*
X349Y3897D03*
X249Y3897D03*
X249Y3197D03*
X349Y3197D03*
X449Y3197D03*
X549Y3197D03*
X649Y3197D03*
X349Y4447D03*
X449Y4447D03*
X549Y4447D03*
X649Y4447D03*
X749Y4447D03*
X849Y4447D03*
G54D11*
X449Y5097D03*
X449Y4697D03*
X849Y5097D03*
X849Y4697D03*
X749Y5097D03*
X749Y4697D03*
G54D12*
X1049Y7897D03*
X1049Y8097D03*
X1049Y7547D03*
X1049Y7347D03*
X849Y5397D03*
X849Y5497D03*
X849Y5597D03*
X849Y5697D03*
X849Y5797D03*
X849Y5897D03*
X849Y5997D03*
X849Y6097D03*
X849Y6197D03*
X849Y6297D03*
X849Y6397D03*
X849Y6497D03*
X849Y6597D03*
X849Y6697D03*
X849Y6797D03*
X249Y5397D03*
X249Y5497D03*
X249Y5597D03*
X249Y5697D03*
X249Y5797D03*
X249Y5897D03*
X249Y5997D03*
X249Y6097D03*
X249Y6197D03*
X249Y6297D03*
X249Y6397D03*
X249Y6497D03*
X249Y6597D03*
X249Y6697D03*
X249Y6797D03*
G54D10*
X949Y8747D03*
X849Y8747D03*
X749Y8747D03*
X649Y8747D03*
G54D13*
X1196Y2997D03*
G54D14*
X1393Y2997D03*
G54D13*
X1202Y3547D03*
G54D14*
X1399Y3547D03*
G54D13*
X1202Y4847D03*
G54D14*
X1399Y4847D03*
G54D13*
X1396Y5297D03*
G54D14*
X1199Y5297D03*
G54D13*
X1349Y8097D03*
G54D14*
X1349Y7900D03*
G54D13*
X1349Y7544D03*
G54D14*
X1349Y7347D03*
G54D10*
X1049Y6397D03*
X1049Y6297D03*
X1049Y6197D03*
X1049Y6097D03*
X1049Y5997D03*
X1049Y5897D03*
X1049Y5797D03*
X1049Y5697D03*
G54D15*
X749Y8122D03*
G54D16*
X398Y8082D03*
X536Y8082D03*
G54D17*
X199Y8147D03*
X199Y8047D03*
X199Y7947D03*
X199Y7847D03*
X199Y7747D03*
X199Y7647D03*
X199Y7547D03*
G54D15*
X749Y7272D03*
G54D17*
X199Y7447D03*
X199Y7347D03*
X199Y7247D03*
G54D12*
X799Y7447D03*
X799Y7547D03*
X799Y7647D03*
X799Y7747D03*
X799Y7847D03*
X799Y7947D03*
G54D18*
X492Y5693D03*
X540Y5573D03*
X276Y4541D03*
X612Y6317D03*
G54D19*
X649Y3897D03*
X249Y3197D03*
X349Y4447D03*
G54D20*
X849Y5397D03*
G54D19*
X949Y8747D03*
X1049Y6397D03*
G54D21*
X749Y4680D02*
X749Y4466D01*
D02*
X251Y5379D02*
X347Y4466D01*
D02*
X449Y4680D02*
X449Y4466D01*
D02*
X849Y5369D02*
X849Y5115D01*
D02*
X817Y7440D02*
X1035Y7353D01*
D02*
X1326Y7347D02*
X1064Y7347D01*
D02*
X1326Y7544D02*
X1064Y7547D01*
D02*
X262Y5486D02*
X444Y5333D01*
X444Y5333D02*
X448Y5115D01*
D02*
X818Y7851D02*
X1034Y7894D01*
D02*
X1326Y7900D02*
X1064Y7897D01*
D02*
X816Y7958D02*
X1036Y8090D01*
D02*
X1326Y8097D02*
X1064Y8097D01*
D02*
X835Y5686D02*
X756Y5621D01*
X756Y5621D02*
X749Y5115D01*
D02*
X235Y6410D02*
X180Y6461D01*
X180Y6461D02*
X180Y7181D01*
X180Y7181D02*
X276Y7205D01*
X276Y7205D02*
X276Y7301D01*
X276Y7301D02*
X216Y7337D01*
D02*
X180Y7440D02*
X132Y7421D01*
X132Y7421D02*
X132Y6413D01*
X132Y6413D02*
X180Y6389D01*
X180Y6389D02*
X180Y6245D01*
X180Y6245D02*
X234Y6208D01*
D02*
X864Y5488D02*
X924Y5453D01*
X924Y5453D02*
X924Y5045D01*
X924Y5045D02*
X660Y5021D01*
X660Y5021D02*
X649Y4466D01*
D02*
X553Y3216D02*
X708Y3821D01*
X708Y3821D02*
X708Y4397D01*
X708Y4397D02*
X663Y4435D01*
D02*
X867Y6097D02*
X1030Y6097D01*
D02*
X1178Y3010D02*
X1116Y3053D01*
X1116Y3053D02*
X1116Y6053D01*
X1116Y6053D02*
X1068Y6053D01*
X1068Y6053D02*
X1056Y6080D01*
D02*
X264Y6807D02*
X324Y6845D01*
X324Y6845D02*
X324Y7349D01*
X324Y7349D02*
X252Y8213D01*
X252Y8213D02*
X84Y8213D01*
X84Y8213D02*
X84Y6365D01*
X84Y6365D02*
X192Y3845D01*
X192Y3845D02*
X344Y3216D01*
D02*
X267Y6696D02*
X492Y6677D01*
X492Y6677D02*
X492Y5701D01*
D02*
X1377Y3013D02*
X1284Y3101D01*
X1284Y3101D02*
X1284Y5333D01*
X1284Y5333D02*
X1164Y6101D01*
X1164Y6101D02*
X1063Y6185D01*
D02*
X648Y3916D02*
X636Y4349D01*
X636Y4349D02*
X561Y4433D01*
D02*
X266Y6492D02*
X444Y6437D01*
X444Y6437D02*
X444Y5645D01*
X444Y5645D02*
X540Y5645D01*
X540Y5645D02*
X588Y6845D01*
X588Y6845D02*
X804Y6845D01*
X804Y6845D02*
X804Y6869D01*
X804Y6869D02*
X924Y6869D01*
X924Y6869D02*
X972Y6317D01*
X972Y6317D02*
X1030Y6302D01*
D02*
X784Y7634D02*
X660Y7517D01*
X660Y7517D02*
X660Y7205D01*
X660Y7205D02*
X804Y6845D01*
D02*
X653Y8729D02*
X660Y8693D01*
X660Y8693D02*
X660Y8045D01*
X660Y8045D02*
X744Y7709D01*
X744Y7709D02*
X785Y7662D01*
D02*
X263Y6086D02*
X396Y5981D01*
X396Y5981D02*
X396Y5597D01*
X396Y5597D02*
X532Y5574D01*
D02*
X268Y3897D02*
X330Y3897D01*
D02*
X276Y4533D02*
X276Y4373D01*
X276Y4373D02*
X539Y3914D01*
D02*
X264Y5988D02*
X348Y5933D01*
X348Y5933D02*
X348Y5549D01*
X348Y5549D02*
X420Y5525D01*
X420Y5525D02*
X612Y5525D01*
X612Y5525D02*
X612Y6309D01*
D02*
X1394Y5320D02*
X1356Y6101D01*
X1356Y6101D02*
X1062Y6384D01*
D02*
X1399Y4870D02*
X1396Y5275D01*
D02*
X1399Y3570D02*
X1399Y4825D01*
G04 End of Copper0*
M02*