; NON-PLATED HOLES START AT T1
; THROUGH (PLATED) HOLES START AT T100
M48
INCH
T1C0.125984
T100C0.036000
T101C0.038000
T102C0.098425
T103C0.045046
T104C0.045031
T105C0.035000
T106C0.015748
T107C0.040000
T108C0.030000
T109C0.039370
%
T1
X007987Y022973
X007974Y029973
X007987Y015973
X007987Y008973
X007974Y092973
X007974Y001473
X007987Y090473
T100
X008487Y056973
X008487Y054973
X002487Y061973
X002487Y060973
X008487Y060973
X002487Y065973
X002487Y066973
X002487Y054973
X008487Y067973
X002487Y055973
X008487Y065973
X008487Y055973
X002487Y063973
X002487Y056973
X002487Y057973
X008487Y053973
X008487Y061973
X008487Y063973
X002487Y062973
X008487Y066973
X002487Y067973
X002487Y059973
X002487Y053973
X008487Y059973
X008487Y057973
X002487Y058973
X008487Y062973
X008487Y064973
X002487Y064973
X008487Y058973
T101
X010487Y059973
X002487Y038973
X005487Y038973
X010487Y058973
X002987Y031973
X010487Y062973
X008487Y044473
X010487Y061973
X003487Y038973
X008487Y087473
X003487Y044473
X004487Y038973
X003987Y031973
X010487Y057973
X010487Y063973
X006487Y087473
X007487Y044473
X001987Y031973
X010487Y060973
X004487Y044473
X005987Y031973
X006487Y044473
X010487Y056973
X007487Y087473
X009487Y087473
X005487Y044473
X006487Y038973
X004987Y031973
T102
X007487Y072723
X007487Y081223
T103
X013955Y052973
X012018Y048473
X013487Y075441
X013487Y080973
X013988Y036974
X012018Y031973
X011963Y026473
T104
X011987Y052973
X013487Y073473
X013987Y031973
X013487Y079004
X012019Y036974
X013987Y048473
X013931Y026473
T105
X003987Y033973
X007487Y046973
X007487Y050973
X004487Y050973
X008487Y050973
X004487Y046973
X008487Y046973
X007987Y033973
T106
X005880Y065568
X013320Y037728
X006840Y059808
X012120Y066048
X007800Y069408
X009720Y055248
X009960Y065328
X006600Y071808
X004920Y060528
T107
X007987Y079473
X007987Y075473
X007987Y076473
X007987Y077473
X007987Y078473
X007987Y074473
T108
X010487Y073473
X012487Y042473
X013072Y041059
X011072Y041059
X010487Y075473
X010487Y078973
X010487Y080973
X014487Y042473
T109
X001987Y076473
X001987Y075473
X001987Y078473
X003978Y080823
X001987Y079473
X001987Y080473
X001987Y072473
X005356Y080823
X001987Y074473
X001987Y077473
X001987Y073473
X001987Y081473
T00
M30
