; NON-PLATED HOLES START AT T1
; THROUGH (PLATED) HOLES START AT T100
M48
INCH
T1C0.125984
T100C0.045031
T101C0.015748
T102C0.040000
T103C0.036000
T104C0.045046
T105C0.043288
T106C0.035000
T107C0.030000
T108C0.039370
T109C0.098425
T110C0.038000
%
T1
X007961Y001473
X007961Y092973
T100
X011873Y038827
X013487Y073473
X013773Y050686
X011804Y054759
X013487Y079004
T101
X008520Y069408
X010440Y070128
X009480Y060288
X007320Y070128
X005880Y069168
X007080Y079968
X009960Y069408
X005880Y041808
X005880Y065568
X007320Y071088
X010440Y065328
X004920Y061968
T102
X007987Y074473
X007987Y079473
X007987Y077473
X007987Y075473
X007987Y078473
X007987Y076473
T103
X008487Y066973
X002487Y059973
X002487Y063973
X008487Y063973
X002487Y056973
X002487Y067973
X008487Y065973
X002487Y060973
X008487Y067973
X002487Y064973
X008487Y061973
X002487Y061973
X002487Y055973
X008487Y057973
X002487Y054973
X002487Y053973
X008487Y062973
X002487Y057973
X008487Y060973
X008487Y056973
X002487Y058973
X008487Y054973
X008487Y059973
X008487Y055973
X002487Y062973
X008487Y064973
X008487Y053973
X002487Y066973
X008487Y058973
X002487Y065973
T104
X013773Y054759
X011805Y050686
X013487Y075441
X013842Y038828
X013487Y080973
T105
X010487Y059973
X010487Y063973
X010487Y062973
X010487Y060973
X010487Y061973
T106
X005987Y046973
X007487Y050973
X004487Y033973
X007487Y046973
X004487Y046973
X004487Y050973
X008487Y033973
X005987Y050973
T107
X009987Y079473
X012778Y042764
X013487Y043473
X009987Y078471
X011487Y043473
X009987Y074473
X009987Y075475
X010778Y042764
T108
X001987Y074473
X001987Y080473
X001987Y079473
X001987Y077473
X001987Y076473
X005356Y080823
X001987Y081473
X001987Y078473
X001987Y072473
X001987Y073473
X001987Y075473
X003978Y080823
T109
X007487Y072723
X007487Y081223
T110
X008487Y044473
X006487Y087473
X004487Y044473
X007487Y087473
X005487Y044473
X005987Y038973
X002487Y031973
X005487Y031973
X004487Y031973
X008487Y087473
X009487Y087473
X007487Y044473
X003487Y044473
X004987Y038973
X006487Y044473
X006487Y031973
X003487Y031973
T00
M30
