; NON-PLATED HOLES START AT T1
; THROUGH (PLATED) HOLES START AT T100
M48
INCH
T1C0.125984
T100C0.045046
T101C0.098425
T102C0.038000
T103C0.035000
T104C0.015748
T105C0.040000
T106C0.045031
T107C0.039370
T108C0.030000
T109C0.036000
%
T1
X007974Y029973
X007987Y015973
X007974Y001473
X007987Y090473
X007974Y092973
X007987Y022973
X007987Y008973
T100
X012018Y048473
X013987Y040473
X012017Y035471
X013487Y080973
X013955Y052973
X011961Y029971
X013487Y075441
T101
X007487Y081223
X007487Y072723
T102
X006487Y038973
X010487Y057973
X003487Y031973
X004487Y031973
X004487Y038973
X010487Y061973
X010487Y060973
X006487Y031973
X008487Y044473
X003487Y038973
X010487Y059973
X005487Y044473
X010487Y058973
X010487Y063973
X010487Y062973
X010487Y056973
X006487Y087473
X006487Y044473
X008487Y087473
X009487Y087473
X005487Y038973
X002487Y031973
X005487Y031973
X004487Y044473
X007487Y087473
X007487Y044473
X002487Y038973
X003487Y044473
T103
X008487Y050973
X007487Y050973
X004487Y050973
X007487Y046973
X008487Y033973
X008487Y046973
X004487Y046973
X004487Y033973
T104
X006600Y071808
X007320Y069168
X002760Y045408
X009960Y065328
X005880Y069648
X008040Y069408
X007560Y057408
X003480Y078288
X003960Y060528
X000599Y058608
X009240Y067488
X003960Y067488
X009960Y049968
T105
X007987Y075473
X007987Y076473
X007987Y079473
X007987Y078473
X007987Y077473
X007987Y074473
T106
X011987Y052973
X012018Y040473
X013987Y048473
X013985Y035472
X013487Y073473
X013930Y029972
X013487Y079004
T107
X001987Y075473
X001987Y080473
X003978Y080823
X001987Y076473
X001987Y079473
X001987Y078473
X001987Y073473
X001987Y081473
X001987Y077473
X005356Y080823
X001987Y074473
X001987Y072473
T108
X010487Y080973
X010487Y078973
X010487Y073473
X010487Y075473
T109
X002487Y067973
X008487Y065973
X008487Y057973
X002487Y063973
X002487Y057973
X008487Y063973
X008487Y053973
X002487Y064973
X002487Y066973
X008487Y055973
X002487Y058973
X002487Y054973
X002487Y056973
X008487Y064973
X008487Y062973
X002487Y065973
X002487Y059973
X002487Y053973
X008487Y058973
X008487Y056973
X002487Y061973
X008487Y061973
X002487Y060973
X008487Y067973
X008487Y054973
X008487Y066973
X008487Y059973
X002487Y062973
X002487Y055973
X008487Y060973
T00
M30
