G04 MADE WITH FRITZING*
G04 WWW.FRITZING.ORG*
G04 DOUBLE SIDED*
G04 HOLES PLATED*
G04 CONTOUR ON CENTER OF CONTOUR VECTOR*
%ASAXBY*%
%FSLAX23Y23*%
%MOIN*%
%OFA0B0*%
%SFA1.0B1.0*%
%ADD10C,0.078000*%
%ADD11C,0.075000*%
%ADD12C,0.070000*%
%ADD13C,0.138425*%
%ADD14C,0.086000*%
%ADD15C,0.076000*%
%ADD16C,0.073379*%
%ADD17C,0.087268*%
%ADD18C,0.087253*%
%ADD19C,0.039370*%
%ADD20R,0.078000X0.078000*%
%ADD21R,0.069972X0.070000*%
%ADD22C,0.024000*%
%LNCOPPER0*%
G90*
G70*
G54D10*
X349Y4447D03*
X449Y4447D03*
X549Y4447D03*
X649Y4447D03*
X749Y4447D03*
X849Y4447D03*
G54D11*
X449Y5097D03*
X449Y4697D03*
X599Y5097D03*
X599Y4697D03*
X749Y5097D03*
X749Y4697D03*
G54D12*
X1149Y4347D03*
X1078Y4276D03*
X1349Y4347D03*
X1278Y4276D03*
X999Y7847D03*
X999Y7947D03*
X999Y7548D03*
X999Y7447D03*
X849Y5397D03*
X849Y5497D03*
X849Y5597D03*
X849Y5697D03*
X849Y5797D03*
X849Y5897D03*
X849Y5997D03*
X849Y6097D03*
X849Y6197D03*
X849Y6297D03*
X849Y6397D03*
X849Y6497D03*
X849Y6597D03*
X849Y6697D03*
X849Y6797D03*
X249Y5397D03*
X249Y5497D03*
X249Y5597D03*
X249Y5697D03*
X249Y5797D03*
X249Y5897D03*
X249Y5997D03*
X249Y6097D03*
X249Y6197D03*
X249Y6297D03*
X249Y6397D03*
X249Y6497D03*
X249Y6597D03*
X249Y6697D03*
X249Y6797D03*
G54D13*
X749Y8122D03*
G54D14*
X398Y8082D03*
X536Y8082D03*
G54D15*
X199Y8147D03*
X199Y8047D03*
X199Y7947D03*
X199Y7847D03*
X199Y7747D03*
X199Y7647D03*
X199Y7547D03*
G54D13*
X749Y7272D03*
G54D15*
X199Y7447D03*
X199Y7347D03*
X199Y7247D03*
G54D12*
X799Y7447D03*
X799Y7547D03*
X799Y7647D03*
X799Y7747D03*
X799Y7847D03*
X799Y7947D03*
G54D16*
X1049Y6397D03*
X1049Y6297D03*
X1049Y6197D03*
X1049Y6097D03*
X1049Y5997D03*
G54D10*
X599Y3897D03*
X499Y3897D03*
X949Y8747D03*
X849Y8747D03*
X749Y8747D03*
X649Y8747D03*
G54D17*
X1377Y5476D03*
G54D18*
X1180Y5476D03*
G54D17*
X1181Y5069D03*
G54D18*
X1377Y5069D03*
G54D17*
X1349Y8097D03*
G54D18*
X1349Y7900D03*
G54D17*
X1349Y7544D03*
G54D18*
X1349Y7347D03*
G54D17*
X1384Y3883D03*
G54D18*
X1187Y3883D03*
G54D10*
X249Y3197D03*
X349Y3197D03*
X449Y3197D03*
X549Y3197D03*
X649Y3197D03*
G54D11*
X449Y3397D03*
X849Y3397D03*
G54D19*
X708Y7997D03*
X492Y6197D03*
X588Y6917D03*
X852Y6941D03*
X996Y6941D03*
X948Y6029D03*
X588Y4181D03*
X588Y6557D03*
X732Y7013D03*
X1044Y7013D03*
X1044Y6533D03*
X732Y7109D03*
G54D20*
X349Y4447D03*
G54D21*
X849Y5397D03*
G54D20*
X599Y3897D03*
X949Y8747D03*
X249Y3197D03*
G54D22*
X867Y6097D02*
X1027Y6097D01*
D02*
X749Y4466D02*
X749Y4680D01*
D02*
X867Y6197D02*
X1027Y6197D01*
D02*
X449Y3216D02*
X449Y3380D01*
D02*
X819Y7447D02*
X984Y7447D01*
D02*
X984Y7548D02*
X819Y7547D01*
D02*
X1326Y7544D02*
X1014Y7547D01*
D02*
X448Y5115D02*
X444Y5333D01*
X444Y5333D02*
X262Y5486D01*
D02*
X1328Y8088D02*
X1013Y7953D01*
D02*
X819Y7847D02*
X984Y7847D01*
D02*
X1326Y7897D02*
X1014Y7849D01*
D02*
X750Y5115D02*
X780Y5669D01*
X780Y5669D02*
X832Y5690D01*
D02*
X596Y4715D02*
X588Y4757D01*
X588Y4757D02*
X828Y4757D01*
X828Y4757D02*
X847Y4466D01*
D02*
X235Y6410D02*
X180Y6461D01*
X180Y6461D02*
X180Y7181D01*
X180Y7181D02*
X276Y7205D01*
X276Y7205D02*
X276Y7301D01*
X276Y7301D02*
X216Y7337D01*
D02*
X234Y6208D02*
X180Y6245D01*
X180Y6245D02*
X180Y6389D01*
X180Y6389D02*
X132Y6413D01*
X132Y6413D02*
X132Y7421D01*
X132Y7421D02*
X180Y7440D01*
D02*
X864Y5488D02*
X924Y5453D01*
X924Y5453D02*
X924Y5333D01*
X924Y5333D02*
X828Y5333D01*
X828Y5333D02*
X828Y5069D01*
X828Y5069D02*
X780Y5021D01*
X780Y5021D02*
X660Y5021D01*
X660Y5021D02*
X660Y5165D01*
X660Y5165D02*
X540Y5165D01*
X540Y5165D02*
X540Y4637D01*
X540Y4637D02*
X639Y4464D01*
D02*
X552Y3216D02*
X660Y3821D01*
X660Y3821D02*
X649Y4428D01*
D02*
X264Y6807D02*
X324Y6845D01*
X324Y6845D02*
X324Y7349D01*
X324Y7349D02*
X252Y8213D01*
X252Y8213D02*
X84Y8213D01*
X84Y8213D02*
X84Y6365D01*
X84Y6365D02*
X347Y3216D01*
D02*
X865Y6404D02*
X996Y6461D01*
X996Y6461D02*
X1116Y6461D01*
X1116Y6461D02*
X1078Y4291D01*
D02*
X1282Y4262D02*
X1378Y3905D01*
D02*
X834Y6307D02*
X780Y6341D01*
X780Y6341D02*
X780Y6845D01*
X780Y6845D02*
X804Y6869D01*
X804Y6869D02*
X1020Y6869D01*
X1020Y6869D02*
X1164Y6533D01*
X1164Y6533D02*
X1164Y5981D01*
X1164Y5981D02*
X1260Y5909D01*
X1260Y5909D02*
X1278Y4291D01*
D02*
X262Y6110D02*
X660Y6485D01*
X660Y6485D02*
X660Y7349D01*
X660Y7349D02*
X707Y7989D01*
D02*
X486Y6192D02*
X263Y6009D01*
D02*
X264Y6707D02*
X581Y6913D01*
D02*
X860Y6941D02*
X988Y6941D01*
D02*
X948Y6021D02*
X972Y5285D01*
X972Y5285D02*
X850Y3415D01*
D02*
X551Y4429D02*
X587Y4189D01*
D02*
X598Y3916D02*
X588Y4173D01*
D02*
X1180Y5453D02*
X1181Y5091D01*
D02*
X266Y6500D02*
X580Y6555D01*
D02*
X740Y7013D02*
X1036Y7013D01*
D02*
X1036Y6531D02*
X866Y6501D01*
D02*
X1377Y5091D02*
X1377Y5453D01*
D02*
X740Y7108D02*
X1092Y7061D01*
X1092Y7061D02*
X1140Y6893D01*
X1140Y6893D02*
X1380Y5525D01*
X1380Y5525D02*
X1379Y5498D01*
G04 End of Copper0*
M02*