G04 MADE WITH FRITZING*
G04 WWW.FRITZING.ORG*
G04 DOUBLE SIDED*
G04 HOLES PLATED*
G04 CONTOUR ON CENTER OF CONTOUR VECTOR*
%ASAXBY*%
%FSLAX23Y23*%
%MOIN*%
%OFA0B0*%
%SFA1.0B1.0*%
%ADD10C,0.078000*%
%ADD11C,0.075000*%
%ADD12C,0.070000*%
%ADD13C,0.138425*%
%ADD14C,0.086000*%
%ADD15C,0.076000*%
%ADD16C,0.073379*%
%ADD17C,0.087268*%
%ADD18C,0.087253*%
%ADD19C,0.039370*%
%ADD20R,0.078000X0.078000*%
%ADD21R,0.069972X0.070000*%
%ADD22C,0.024000*%
%LNCOPPER1*%
G90*
G70*
G54D10*
X249Y3197D03*
X349Y3197D03*
X449Y3197D03*
X549Y3197D03*
X649Y3197D03*
G54D11*
X449Y3397D03*
X849Y3397D03*
G54D10*
X349Y4447D03*
X449Y4447D03*
X549Y4447D03*
X649Y4447D03*
X749Y4447D03*
X849Y4447D03*
G54D11*
X449Y5097D03*
X449Y4697D03*
X599Y5097D03*
X599Y4697D03*
X749Y5097D03*
X749Y4697D03*
G54D12*
X1234Y4383D03*
X1093Y4241D03*
X1434Y4383D03*
X1293Y4241D03*
X1049Y7897D03*
X1049Y8097D03*
X1049Y7547D03*
X1049Y7347D03*
X849Y5397D03*
X849Y5497D03*
X849Y5597D03*
X849Y5697D03*
X849Y5797D03*
X849Y5897D03*
X849Y5997D03*
X849Y6097D03*
X849Y6197D03*
X849Y6297D03*
X849Y6397D03*
X849Y6497D03*
X849Y6597D03*
X849Y6697D03*
X849Y6797D03*
X249Y5397D03*
X249Y5497D03*
X249Y5597D03*
X249Y5697D03*
X249Y5797D03*
X249Y5897D03*
X249Y5997D03*
X249Y6097D03*
X249Y6197D03*
X249Y6297D03*
X249Y6397D03*
X249Y6497D03*
X249Y6597D03*
X249Y6697D03*
X249Y6797D03*
G54D13*
X749Y8122D03*
G54D14*
X398Y8082D03*
X536Y8082D03*
G54D15*
X199Y8147D03*
X199Y8047D03*
X199Y7947D03*
X199Y7847D03*
X199Y7747D03*
X199Y7647D03*
X199Y7547D03*
G54D13*
X749Y7272D03*
G54D15*
X199Y7447D03*
X199Y7347D03*
X199Y7247D03*
G54D12*
X799Y7447D03*
X799Y7547D03*
X799Y7647D03*
X799Y7747D03*
X799Y7847D03*
X799Y7947D03*
G54D16*
X1049Y6397D03*
X1049Y6297D03*
X1049Y6197D03*
X1049Y6097D03*
X1049Y5997D03*
G54D10*
X949Y8747D03*
X849Y8747D03*
X749Y8747D03*
X649Y8747D03*
G54D17*
X1180Y5069D03*
G54D18*
X1377Y5069D03*
G54D17*
X1377Y5476D03*
G54D18*
X1180Y5476D03*
G54D17*
X1349Y8097D03*
G54D18*
X1349Y7900D03*
G54D17*
X1349Y7544D03*
G54D18*
X1349Y7347D03*
G54D17*
X1384Y3883D03*
G54D18*
X1187Y3883D03*
G54D10*
X699Y3897D03*
X599Y3897D03*
X499Y3897D03*
X399Y3897D03*
X299Y3897D03*
G54D19*
X1236Y6341D03*
X588Y6965D03*
X588Y6557D03*
X1044Y6533D03*
X1212Y6605D03*
X996Y5285D03*
X588Y5621D03*
X324Y5309D03*
X708Y6605D03*
G54D20*
X249Y3197D03*
X349Y4447D03*
G54D21*
X849Y5397D03*
G54D20*
X949Y8747D03*
X699Y3897D03*
G54D22*
X799Y7667D02*
X799Y7727D01*
D02*
X651Y7749D02*
X649Y8728D01*
D02*
X779Y7748D02*
X651Y7749D01*
D02*
X347Y4466D02*
X251Y5379D01*
D02*
X819Y7547D02*
X1034Y7547D01*
D02*
X610Y5111D02*
X831Y5376D01*
D02*
X234Y5707D02*
X180Y5741D01*
X180Y5741D02*
X198Y7228D01*
D02*
X265Y5806D02*
X324Y5837D01*
X324Y5837D02*
X324Y6845D01*
X324Y6845D02*
X276Y6869D01*
X276Y6869D02*
X276Y7685D01*
X276Y7685D02*
X214Y7735D01*
D02*
X263Y5608D02*
X372Y5693D01*
X372Y5693D02*
X372Y6893D01*
X372Y6893D02*
X312Y7733D01*
X312Y7733D02*
X213Y7833D01*
D02*
X1182Y3905D02*
X1096Y4227D01*
D02*
X1379Y3905D02*
X1296Y4227D01*
D02*
X748Y8728D02*
X732Y8213D01*
X732Y8213D02*
X828Y8213D01*
X828Y8213D02*
X840Y8189D01*
X840Y8189D02*
X876Y7613D01*
X876Y7613D02*
X1092Y7613D01*
X1092Y7613D02*
X1116Y7589D01*
X1116Y7589D02*
X1116Y6941D01*
X1116Y6941D02*
X780Y6845D01*
X780Y6845D02*
X710Y6612D01*
D02*
X518Y3897D02*
X580Y3897D01*
D02*
X418Y3897D02*
X480Y3897D01*
D02*
X836Y5985D02*
X324Y5501D01*
X324Y5501D02*
X324Y5317D01*
D02*
X580Y5621D02*
X540Y5621D01*
X540Y5621D02*
X540Y5045D01*
X540Y5045D02*
X924Y5021D01*
X924Y5021D02*
X936Y6677D01*
X936Y6677D02*
X1164Y6869D01*
X1164Y6869D02*
X1164Y7637D01*
X1164Y7637D02*
X1140Y7661D01*
X1140Y7661D02*
X924Y7661D01*
X924Y7661D02*
X850Y8728D01*
D02*
X996Y5293D02*
X972Y6605D01*
X972Y6605D02*
X1204Y6605D01*
D02*
X1048Y6419D02*
X1044Y6525D01*
D02*
X1371Y5498D02*
X1224Y6029D01*
X1224Y6029D02*
X1116Y6365D01*
X1116Y6365D02*
X1068Y6388D01*
D02*
X213Y8034D02*
X660Y7613D01*
X660Y7613D02*
X660Y6557D01*
X660Y6557D02*
X832Y6503D01*
D02*
X937Y8763D02*
X900Y8813D01*
X900Y8813D02*
X588Y8813D01*
X588Y8813D02*
X228Y8069D01*
X228Y8069D02*
X215Y8059D01*
D02*
X1419Y4383D02*
X1249Y4383D01*
D02*
X558Y4431D02*
X588Y4373D01*
X588Y4373D02*
X1219Y4382D01*
D02*
X694Y3916D02*
X588Y4373D01*
D02*
X650Y3216D02*
X697Y3878D01*
D02*
X1064Y6282D02*
X1104Y6245D01*
X1104Y6245D02*
X1178Y5498D01*
D02*
X588Y6565D02*
X588Y6957D01*
D02*
X1238Y6333D02*
X1452Y5549D01*
X1452Y5549D02*
X1428Y5405D01*
X1428Y5405D02*
X1188Y5429D01*
X1188Y5429D02*
X1184Y5454D01*
G04 End of Copper1*
M02*