; NON-PLATED HOLES START AT T1
; THROUGH (PLATED) HOLES START AT T100
M48
INCH
T1C0.125984
T2C0.070000
T3C0.058000
T100C0.039370
T101C0.030000
T102C0.047244
T103C0.038000
T104C0.098425
T105C0.040000
T106C0.015748
%
T1
X010813Y029984
X010813Y001462
X010813Y092976
T2
X011446Y014744
X009300Y014744
T3
X009425Y015942
X011332Y015942
T100
X013861Y059067
X008861Y059067
X007511Y062437
X009861Y059067
X007511Y061059
X010861Y059067
X007861Y059067
X011861Y059067
X006861Y059067
X012861Y059067
X014861Y059067
X015861Y059067
T101
X005892Y067926
X005892Y069926
X015735Y069926
X015735Y067926
T102
X003924Y067957
X017703Y069894
X017703Y067926
X003924Y069926
T103
X013872Y028682
X006876Y029682
X016719Y033540
X016719Y035540
X013872Y021682
X009376Y033682
X013872Y029682
X006876Y028682
X006876Y027682
X013872Y024682
X013872Y026682
X011353Y084658
X006876Y015682
X013872Y014681
X016719Y034540
X003924Y025697
X013872Y030682
X016719Y030540
X006876Y025682
X010353Y084658
X006876Y022682
X010376Y033682
X011376Y033682
X003924Y020697
X013872Y017682
X016719Y032540
X012353Y084658
X020719Y008871
X016719Y031540
X006876Y016682
X003924Y021697
X018687Y021666
X019719Y008871
X013872Y033682
X006876Y023682
X017719Y008871
X006876Y032682
X013872Y020682
X016719Y029540
X018687Y025666
X006876Y031682
X013872Y016682
X018687Y024666
X006876Y017682
X006876Y018682
X013872Y018682
X006876Y014682
X013872Y019682
X013872Y025682
X003924Y024697
X003924Y023697
X006876Y019682
X006876Y033682
X013872Y032682
X006876Y024682
X013872Y022682
X013872Y015682
X018687Y023666
X013872Y027682
X013872Y031682
X006876Y030682
X013872Y023682
X006876Y026682
X016719Y008871
X003924Y022697
X006876Y020682
X018687Y022666
X016719Y028540
X006876Y021682
X018719Y008871
X009353Y084658
T104
X007111Y064567
X015611Y064567
T105
X013861Y065067
X011861Y065067
X010861Y065067
X009861Y065067
X008861Y065067
X012861Y065067
T106
X002520Y022608
X013800Y037008
X017160Y041088
X012840Y031248
X009960Y029088
X005880Y037248
X009960Y067248
X008040Y033408
X013080Y037488
X008520Y027888
X012600Y039648
T00
M30
