G04 MADE WITH FRITZING*
G04 WWW.FRITZING.ORG*
G04 DOUBLE SIDED*
G04 HOLES PLATED*
G04 CONTOUR ON CENTER OF CONTOUR VECTOR*
%ASAXBY*%
%FSLAX23Y23*%
%MOIN*%
%OFA0B0*%
%SFA1.0B1.0*%
%ADD10C,0.078000*%
%ADD11C,0.075000*%
%ADD12C,0.070000*%
%ADD13C,0.087268*%
%ADD14C,0.087253*%
%ADD15C,0.138425*%
%ADD16C,0.086000*%
%ADD17C,0.076000*%
%ADD18C,0.039370*%
%ADD19R,0.078000X0.078000*%
%ADD20R,0.069972X0.070000*%
%ADD21C,0.024000*%
%LNCOPPER1*%
G90*
G70*
G54D10*
X649Y3897D03*
X549Y3897D03*
X449Y3897D03*
X349Y3897D03*
X249Y3897D03*
X249Y3197D03*
X349Y3197D03*
X449Y3197D03*
X549Y3197D03*
X649Y3197D03*
G54D11*
X449Y3397D03*
X849Y3397D03*
G54D10*
X349Y4447D03*
X449Y4447D03*
X549Y4447D03*
X649Y4447D03*
X749Y4447D03*
X849Y4447D03*
G54D11*
X449Y5097D03*
X449Y4697D03*
X849Y5097D03*
X849Y4697D03*
X749Y5097D03*
X749Y4697D03*
G54D12*
X1049Y7897D03*
X1049Y8097D03*
X1049Y7547D03*
X1049Y7347D03*
X849Y5397D03*
X849Y5497D03*
X849Y5597D03*
X849Y5697D03*
X849Y5797D03*
X849Y5897D03*
X849Y5997D03*
X849Y6097D03*
X849Y6197D03*
X849Y6297D03*
X849Y6397D03*
X849Y6497D03*
X849Y6597D03*
X849Y6697D03*
X849Y6797D03*
X249Y5397D03*
X249Y5497D03*
X249Y5597D03*
X249Y5697D03*
X249Y5797D03*
X249Y5897D03*
X249Y5997D03*
X249Y6097D03*
X249Y6197D03*
X249Y6297D03*
X249Y6397D03*
X249Y6497D03*
X249Y6597D03*
X249Y6697D03*
X249Y6797D03*
G54D10*
X949Y8747D03*
X849Y8747D03*
X749Y8747D03*
X649Y8747D03*
G54D13*
X1196Y2997D03*
G54D14*
X1393Y2997D03*
G54D13*
X1202Y3547D03*
G54D14*
X1399Y3547D03*
G54D13*
X1202Y4847D03*
G54D14*
X1399Y4847D03*
G54D13*
X1396Y5297D03*
G54D14*
X1199Y5297D03*
G54D13*
X1349Y8097D03*
G54D14*
X1349Y7900D03*
G54D13*
X1349Y7544D03*
G54D14*
X1349Y7347D03*
G54D13*
X1399Y4047D03*
G54D14*
X1202Y4047D03*
G54D10*
X1049Y6397D03*
X1049Y6297D03*
X1049Y6197D03*
X1049Y6097D03*
X1049Y5997D03*
X1049Y5897D03*
X1049Y5797D03*
X1049Y5697D03*
G54D15*
X749Y8122D03*
G54D16*
X398Y8082D03*
X536Y8082D03*
G54D17*
X199Y8147D03*
X199Y8047D03*
X199Y7947D03*
X199Y7847D03*
X199Y7747D03*
X199Y7647D03*
X199Y7547D03*
G54D15*
X749Y7272D03*
G54D17*
X199Y7447D03*
X199Y7347D03*
X199Y7247D03*
G54D12*
X799Y7447D03*
X799Y7547D03*
X799Y7647D03*
X799Y7747D03*
X799Y7847D03*
X799Y7947D03*
G54D18*
X396Y6053D03*
X276Y4541D03*
X924Y6749D03*
X804Y6941D03*
X588Y6965D03*
X996Y4997D03*
X756Y5741D03*
X732Y6917D03*
X396Y6749D03*
X660Y7181D03*
X60Y5861D03*
X348Y7829D03*
X996Y6533D03*
G54D19*
X649Y3897D03*
X249Y3197D03*
X349Y4447D03*
G54D20*
X849Y5397D03*
G54D19*
X949Y8747D03*
X1049Y6397D03*
G54D21*
X849Y4466D02*
X849Y4680D01*
D02*
X819Y7547D02*
X1034Y7547D01*
D02*
X198Y7228D02*
X180Y5741D01*
X180Y5741D02*
X234Y5707D01*
D02*
X214Y7835D02*
X252Y7805D01*
X252Y7805D02*
X324Y6845D01*
X324Y6845D02*
X324Y5645D01*
X324Y5645D02*
X264Y5607D01*
D02*
X346Y7836D02*
X252Y8213D01*
X252Y8213D02*
X132Y8213D01*
X132Y8213D02*
X60Y5869D01*
D02*
X746Y8729D02*
X660Y8189D01*
X660Y8189D02*
X660Y7189D01*
D02*
X867Y6197D02*
X1030Y6197D01*
D02*
X1377Y3013D02*
X1116Y3269D01*
X1116Y3269D02*
X1116Y6149D01*
X1116Y6149D02*
X1064Y6186D01*
D02*
X530Y3897D02*
X468Y3897D01*
D02*
X838Y5983D02*
X276Y5261D01*
X276Y5261D02*
X276Y4549D01*
D02*
X848Y8728D02*
X828Y8189D01*
X828Y8189D02*
X1116Y7589D01*
X1116Y7589D02*
X1116Y6845D01*
X1116Y6845D02*
X804Y6857D01*
X804Y6857D02*
X400Y6060D01*
D02*
X403Y6752D02*
X725Y6913D01*
D02*
X756Y5733D02*
X780Y5333D01*
X780Y5333D02*
X992Y5003D01*
D02*
X1202Y4870D02*
X1199Y5275D01*
D02*
X555Y4429D02*
X1044Y3077D01*
X1044Y3077D02*
X1236Y3077D01*
X1236Y3077D02*
X1332Y2933D01*
X1332Y2933D02*
X1476Y2933D01*
X1476Y2933D02*
X1476Y3029D01*
X1476Y3029D02*
X1164Y3317D01*
X1164Y3317D02*
X1272Y3989D01*
X1272Y3989D02*
X1204Y4825D01*
D02*
X668Y3897D02*
X1044Y3893D01*
X1044Y3893D02*
X1044Y3077D01*
D02*
X1198Y3525D02*
X1164Y3317D01*
D02*
X667Y3192D02*
X1044Y3077D01*
D02*
X1065Y6287D02*
X1164Y6221D01*
X1164Y6221D02*
X1198Y5320D01*
D02*
X596Y6965D02*
X780Y6965D01*
X780Y6965D02*
X798Y6946D01*
D02*
X924Y6741D02*
X924Y6413D01*
X924Y6413D02*
X1020Y6317D01*
X1020Y6317D02*
X1033Y6308D01*
D02*
X781Y7638D02*
X732Y7613D01*
X732Y7613D02*
X732Y7397D01*
X732Y7397D02*
X852Y7373D01*
X852Y7373D02*
X805Y6949D01*
D02*
X999Y6525D02*
X1042Y6415D01*
G04 End of Copper1*
M02*