G04 MADE WITH FRITZING*
G04 WWW.FRITZING.ORG*
G04 DOUBLE SIDED*
G04 HOLES PLATED*
G04 CONTOUR ON CENTER OF CONTOUR VECTOR*
%ASAXBY*%
%FSLAX23Y23*%
%MOIN*%
%OFA0B0*%
%SFA1.0B1.0*%
%ADD10C,0.078000*%
%ADD11C,0.075000*%
%ADD12C,0.070000*%
%ADD13C,0.087268*%
%ADD14C,0.087253*%
%ADD15C,0.138425*%
%ADD16C,0.086000*%
%ADD17C,0.076000*%
%ADD18C,0.039370*%
%ADD19R,0.078000X0.078000*%
%ADD20R,0.069972X0.070000*%
%ADD21C,0.024000*%
%LNCOPPER0*%
G90*
G70*
G54D10*
X649Y3897D03*
X549Y3897D03*
X449Y3897D03*
X349Y3897D03*
X249Y3897D03*
X249Y3197D03*
X349Y3197D03*
X449Y3197D03*
X549Y3197D03*
X649Y3197D03*
G54D11*
X449Y3397D03*
X849Y3397D03*
G54D10*
X349Y4447D03*
X449Y4447D03*
X549Y4447D03*
X649Y4447D03*
X749Y4447D03*
X849Y4447D03*
G54D11*
X449Y5097D03*
X449Y4697D03*
X849Y5097D03*
X849Y4697D03*
X749Y5097D03*
X749Y4697D03*
G54D12*
X1249Y4247D03*
X1107Y4106D03*
X1449Y4247D03*
X1307Y4106D03*
X1049Y7897D03*
X1049Y8097D03*
X1049Y7547D03*
X1049Y7347D03*
X849Y5397D03*
X849Y5497D03*
X849Y5597D03*
X849Y5697D03*
X849Y5797D03*
X849Y5897D03*
X849Y5997D03*
X849Y6097D03*
X849Y6197D03*
X849Y6297D03*
X849Y6397D03*
X849Y6497D03*
X849Y6597D03*
X849Y6697D03*
X849Y6797D03*
X249Y5397D03*
X249Y5497D03*
X249Y5597D03*
X249Y5697D03*
X249Y5797D03*
X249Y5897D03*
X249Y5997D03*
X249Y6097D03*
X249Y6197D03*
X249Y6297D03*
X249Y6397D03*
X249Y6497D03*
X249Y6597D03*
X249Y6697D03*
X249Y6797D03*
G54D10*
X949Y8747D03*
X849Y8747D03*
X749Y8747D03*
X649Y8747D03*
G54D13*
X1196Y2647D03*
G54D14*
X1393Y2647D03*
G54D13*
X1202Y3197D03*
G54D14*
X1399Y3197D03*
G54D13*
X1202Y4847D03*
G54D14*
X1399Y4847D03*
G54D13*
X1396Y5297D03*
G54D14*
X1199Y5297D03*
G54D13*
X1349Y8097D03*
G54D14*
X1349Y7900D03*
G54D13*
X1349Y7544D03*
G54D14*
X1349Y7347D03*
G54D13*
X1399Y3697D03*
G54D14*
X1202Y3697D03*
G54D10*
X1049Y6397D03*
X1049Y6297D03*
X1049Y6197D03*
X1049Y6097D03*
X1049Y5997D03*
X1049Y5897D03*
X1049Y5797D03*
X1049Y5697D03*
G54D15*
X749Y8122D03*
G54D16*
X398Y8082D03*
X536Y8082D03*
G54D17*
X199Y8147D03*
X199Y8047D03*
X199Y7947D03*
X199Y7847D03*
X199Y7747D03*
X199Y7647D03*
X199Y7547D03*
G54D15*
X749Y7272D03*
G54D17*
X199Y7447D03*
X199Y7347D03*
X199Y7247D03*
G54D12*
X799Y7447D03*
X799Y7547D03*
X799Y7647D03*
X799Y7747D03*
X799Y7847D03*
X799Y7947D03*
G54D18*
X660Y7181D03*
X1332Y3773D03*
X492Y6053D03*
X684Y5981D03*
X972Y5525D03*
X588Y6557D03*
X780Y6941D03*
X1212Y6605D03*
X996Y6533D03*
G54D19*
X649Y3897D03*
X249Y3197D03*
X349Y4447D03*
G54D20*
X849Y5397D03*
G54D19*
X949Y8747D03*
X1049Y6397D03*
G54D21*
X449Y3216D02*
X449Y3380D01*
D02*
X849Y4680D02*
X849Y4466D01*
D02*
X449Y4680D02*
X449Y4466D01*
D02*
X1034Y7547D02*
X819Y7547D01*
D02*
X1326Y7544D02*
X1064Y7547D01*
D02*
X1326Y7347D02*
X1064Y7347D01*
D02*
X448Y5115D02*
X444Y5333D01*
X444Y5333D02*
X262Y5486D01*
D02*
X1034Y7894D02*
X818Y7851D01*
D02*
X1326Y7900D02*
X1064Y7897D01*
D02*
X1036Y8090D02*
X816Y7958D01*
D02*
X1326Y8097D02*
X1064Y8097D01*
D02*
X750Y5115D02*
X780Y5669D01*
X780Y5669D02*
X832Y5690D01*
D02*
X235Y6410D02*
X180Y6461D01*
X180Y6461D02*
X180Y7181D01*
X180Y7181D02*
X276Y7205D01*
X276Y7205D02*
X276Y7301D01*
X276Y7301D02*
X216Y7337D01*
D02*
X234Y6208D02*
X180Y6245D01*
X180Y6245D02*
X180Y6389D01*
X180Y6389D02*
X132Y6413D01*
X132Y6413D02*
X132Y7421D01*
X132Y7421D02*
X180Y7440D01*
D02*
X649Y4466D02*
X660Y5021D01*
X660Y5021D02*
X924Y5045D01*
X924Y5045D02*
X924Y5453D01*
X924Y5453D02*
X864Y5488D01*
D02*
X553Y3216D02*
X708Y3821D01*
X708Y3821D02*
X708Y4397D01*
X708Y4397D02*
X663Y4435D01*
D02*
X344Y3216D02*
X192Y3845D01*
X192Y3845D02*
X84Y6365D01*
X84Y6365D02*
X84Y8213D01*
X84Y8213D02*
X252Y8213D01*
X252Y8213D02*
X324Y7349D01*
X324Y7349D02*
X324Y6845D01*
X324Y6845D02*
X264Y6807D01*
D02*
X867Y6097D02*
X1030Y6097D01*
D02*
X1183Y2666D02*
X1164Y2693D01*
X1164Y2693D02*
X1044Y4061D01*
X1044Y4061D02*
X1044Y5621D01*
X1044Y5621D02*
X972Y5645D01*
X972Y5645D02*
X972Y6053D01*
X972Y6053D02*
X1032Y6088D01*
D02*
X1111Y4091D02*
X1197Y3719D01*
D02*
X865Y6406D02*
X972Y6461D01*
X972Y6461D02*
X1116Y6461D01*
X1116Y6461D02*
X1107Y4121D01*
D02*
X268Y3897D02*
X330Y3897D01*
D02*
X833Y5988D02*
X780Y5957D01*
X780Y5957D02*
X492Y5021D01*
X492Y5021D02*
X276Y5045D01*
X276Y5045D02*
X276Y4373D01*
X276Y4373D02*
X539Y3914D01*
D02*
X262Y6110D02*
X660Y6485D01*
X660Y6485D02*
X660Y7173D01*
D02*
X1311Y4091D02*
X1394Y3719D01*
D02*
X834Y6307D02*
X780Y6341D01*
X780Y6341D02*
X780Y6845D01*
X780Y6845D02*
X804Y6857D01*
X804Y6857D02*
X1092Y6845D01*
X1092Y6845D02*
X1284Y5885D01*
X1284Y5885D02*
X1284Y4805D01*
X1284Y4805D02*
X1188Y4781D01*
X1188Y4781D02*
X1188Y4181D01*
X1188Y4181D02*
X1295Y4114D01*
D02*
X1390Y2670D02*
X1332Y3125D01*
X1332Y3125D02*
X1332Y3765D01*
D02*
X266Y6001D02*
X484Y6051D01*
D02*
X262Y6709D02*
X324Y6761D01*
X324Y6761D02*
X684Y7373D01*
X684Y7373D02*
X828Y7373D01*
X828Y7373D02*
X852Y7205D01*
X852Y7205D02*
X828Y7181D01*
X828Y7181D02*
X708Y7181D01*
X708Y7181D02*
X708Y6437D01*
X708Y6437D02*
X684Y5989D01*
D02*
X972Y5517D02*
X972Y4997D01*
X972Y4997D02*
X850Y3415D01*
D02*
X1434Y4247D02*
X1264Y4247D01*
D02*
X266Y6500D02*
X580Y6555D01*
D02*
X788Y6940D02*
X1188Y6893D01*
X1188Y6893D02*
X1211Y6613D01*
D02*
X819Y7646D02*
X1428Y7613D01*
X1428Y7613D02*
X1404Y7469D01*
X1404Y7469D02*
X900Y7469D01*
X900Y7469D02*
X900Y7157D01*
X900Y7157D02*
X784Y6948D01*
D02*
X866Y6502D02*
X988Y6531D01*
D02*
X1399Y4870D02*
X1396Y5275D01*
D02*
X1417Y3211D02*
X1524Y3293D01*
X1524Y3293D02*
X1524Y4277D01*
X1524Y4277D02*
X1404Y4825D01*
G04 End of Copper0*
M02*