G04 MADE WITH FRITZING*
G04 WWW.FRITZING.ORG*
G04 DOUBLE SIDED*
G04 HOLES PLATED*
G04 CONTOUR ON CENTER OF CONTOUR VECTOR*
%ASAXBY*%
%FSLAX23Y23*%
%MOIN*%
%OFA0B0*%
%SFA1.0B1.0*%
%ADD10C,0.088000*%
%ADD11C,0.085000*%
%ADD12C,0.135984*%
%ADD13C,0.080000*%
%ADD14C,0.097268*%
%ADD15C,0.097253*%
%ADD16C,0.148425*%
%ADD17C,0.096000*%
%ADD18C,0.086000*%
%ADD19C,0.049370*%
%ADD20R,0.088000X0.088000*%
%ADD21R,0.079972X0.080000*%
%LNMASK1*%
G90*
G70*
G54D10*
X649Y3897D03*
X549Y3897D03*
X449Y3897D03*
X349Y3897D03*
X249Y3897D03*
X199Y3197D03*
X299Y3197D03*
X399Y3197D03*
X499Y3197D03*
X599Y3197D03*
G54D11*
X399Y3397D03*
X799Y3397D03*
G54D10*
X349Y4447D03*
X449Y4447D03*
X549Y4447D03*
X649Y4447D03*
X749Y4447D03*
X849Y4447D03*
G54D11*
X449Y5097D03*
X449Y4697D03*
X849Y5097D03*
X849Y4697D03*
X749Y5097D03*
X749Y4697D03*
G54D12*
X799Y9047D03*
X797Y9297D03*
X799Y897D03*
X799Y2297D03*
X799Y1597D03*
X797Y2997D03*
X797Y147D03*
G54D13*
X1249Y4247D03*
X1107Y4106D03*
X1449Y4247D03*
X1307Y4106D03*
X1049Y7897D03*
X1049Y8097D03*
X1049Y7547D03*
X1049Y7347D03*
X849Y5397D03*
X849Y5497D03*
X849Y5597D03*
X849Y5697D03*
X849Y5797D03*
X849Y5897D03*
X849Y5997D03*
X849Y6097D03*
X849Y6197D03*
X849Y6297D03*
X849Y6397D03*
X849Y6497D03*
X849Y6597D03*
X849Y6697D03*
X849Y6797D03*
X249Y5397D03*
X249Y5497D03*
X249Y5597D03*
X249Y5697D03*
X249Y5797D03*
X249Y5897D03*
X249Y5997D03*
X249Y6097D03*
X249Y6197D03*
X249Y6297D03*
X249Y6397D03*
X249Y6497D03*
X249Y6597D03*
X249Y6697D03*
X249Y6797D03*
G54D10*
X949Y8747D03*
X849Y8747D03*
X749Y8747D03*
X649Y8747D03*
G54D14*
X1196Y2647D03*
G54D15*
X1393Y2647D03*
G54D14*
X1202Y3197D03*
G54D15*
X1399Y3197D03*
G54D14*
X1202Y4847D03*
G54D15*
X1399Y4847D03*
G54D14*
X1396Y5297D03*
G54D15*
X1199Y5297D03*
G54D14*
X1349Y8097D03*
G54D15*
X1349Y7900D03*
G54D14*
X1349Y7544D03*
G54D15*
X1349Y7347D03*
G54D14*
X1399Y3697D03*
G54D15*
X1202Y3697D03*
G54D10*
X1049Y6397D03*
X1049Y6297D03*
X1049Y6197D03*
X1049Y6097D03*
X1049Y5997D03*
X1049Y5897D03*
X1049Y5797D03*
X1049Y5697D03*
G54D16*
X749Y8122D03*
G54D17*
X398Y8082D03*
X536Y8082D03*
G54D18*
X199Y8147D03*
X199Y8047D03*
X199Y7947D03*
X199Y7847D03*
X199Y7747D03*
X199Y7647D03*
X199Y7547D03*
G54D16*
X749Y7272D03*
G54D18*
X199Y7447D03*
X199Y7347D03*
X199Y7247D03*
G54D13*
X799Y7447D03*
X799Y7547D03*
X799Y7647D03*
X799Y7747D03*
X799Y7847D03*
X799Y7947D03*
G54D19*
X660Y7181D03*
X1332Y3773D03*
X492Y6053D03*
X972Y5525D03*
X684Y5981D03*
X1212Y6605D03*
X780Y6941D03*
X588Y6557D03*
X996Y6533D03*
G54D20*
X649Y3897D03*
X199Y3197D03*
X349Y4447D03*
G54D21*
X849Y5397D03*
G54D20*
X949Y8747D03*
X1049Y6397D03*
G04 End of Mask1*
M02*