; NON-PLATED HOLES START AT T1
; THROUGH (PLATED) HOLES START AT T100
M48
INCH
T1C0.125984
T100C0.036000
T101C0.015748
T102C0.098425
T103C0.039370
T104C0.045046
T105C0.043288
T106C0.045031
T107C0.035000
T108C0.040000
T109C0.030000
T110C0.038000
%
T1
X007936Y001477
X007936Y061477
T100
X001987Y026477
X001987Y022477
X007987Y032477
X001987Y025477
X007987Y034477
X001987Y034477
X007987Y026477
X007987Y029477
X007987Y035477
X007987Y027477
X001987Y024477
X007987Y024477
X001987Y033477
X001987Y029477
X007987Y031477
X007987Y028477
X007987Y025477
X007987Y033477
X001987Y031477
X007987Y022477
X007987Y023477
X001987Y032477
X001987Y036477
X007987Y030477
X001987Y027477
X001987Y035477
X001987Y030477
X001987Y028477
X001987Y023477
X007987Y036477
T101
X000599Y025432
X005400Y031432
X009240Y038392
X004920Y043192
T102
X007487Y041227
X007487Y049727
T103
X001987Y044977
X003978Y049327
X001987Y049977
X001987Y048977
X001987Y045977
X005356Y049327
X001987Y046977
X001987Y040977
X001987Y041977
X001987Y042977
X001987Y043977
X001987Y047977
T104
X013487Y048945
X013487Y043945
X013487Y024945
X013455Y002477
T105
X009987Y029477
X009987Y028477
X009987Y032477
X009987Y030477
X009987Y031477
T106
X013487Y022977
X013487Y041977
X011487Y002477
X013487Y046977
T107
X004487Y019477
X004487Y015477
X005987Y019477
X007487Y015477
X005987Y015477
X007487Y019477
T108
X007987Y043977
X007987Y047977
X007987Y044977
X007987Y045977
X007987Y046977
X007987Y042977
T109
X009987Y043979
X009987Y042977
X011132Y016122
X013840Y016830
X009987Y046975
X009987Y047977
X011840Y016830
X013132Y016122
T110
X005487Y012977
X007487Y012977
X005987Y006477
X009487Y055977
X004987Y006477
X007487Y055977
X008487Y055977
X003487Y012977
X006487Y055977
X006487Y012977
X008487Y012977
X004487Y012977
T00
M30
