G04 MADE WITH FRITZING*
G04 WWW.FRITZING.ORG*
G04 DOUBLE SIDED*
G04 HOLES PLATED*
G04 CONTOUR ON CENTER OF CONTOUR VECTOR*
%ASAXBY*%
%FSLAX23Y23*%
%MOIN*%
%OFA0B0*%
%SFA1.0B1.0*%
%ADD10C,0.135984*%
%ADD11C,0.080000*%
%ADD12C,0.148425*%
%ADD13C,0.096000*%
%ADD14C,0.086000*%
%ADD15C,0.083379*%
%ADD16C,0.088000*%
%ADD17C,0.097268*%
%ADD18C,0.097253*%
%ADD19C,0.085000*%
%ADD20C,0.049370*%
%ADD21R,0.079972X0.080000*%
%ADD22R,0.088000X0.088000*%
%LNMASK1*%
G90*
G70*
G54D10*
X794Y6148D03*
X794Y148D03*
G54D11*
X1184Y1683D03*
X1113Y1612D03*
X1384Y1683D03*
X1313Y1612D03*
X999Y4698D03*
X999Y4798D03*
X999Y4398D03*
X999Y4298D03*
X799Y2248D03*
X799Y2348D03*
X799Y2448D03*
X799Y2548D03*
X799Y2648D03*
X799Y2748D03*
X799Y2848D03*
X799Y2948D03*
X799Y3048D03*
X799Y3148D03*
X799Y3248D03*
X799Y3348D03*
X799Y3448D03*
X799Y3548D03*
X799Y3648D03*
X199Y2248D03*
X199Y2348D03*
X199Y2448D03*
X199Y2548D03*
X199Y2648D03*
X199Y2748D03*
X199Y2848D03*
X199Y2948D03*
X199Y3048D03*
X199Y3148D03*
X199Y3248D03*
X199Y3348D03*
X199Y3448D03*
X199Y3548D03*
X199Y3648D03*
G54D12*
X749Y4973D03*
G54D13*
X398Y4933D03*
X536Y4933D03*
G54D14*
X199Y4998D03*
X199Y4898D03*
X199Y4798D03*
X199Y4698D03*
X199Y4598D03*
X199Y4498D03*
X199Y4398D03*
G54D12*
X749Y4123D03*
G54D14*
X199Y4298D03*
X199Y4198D03*
X199Y4098D03*
G54D11*
X799Y4298D03*
X799Y4398D03*
X799Y4498D03*
X799Y4598D03*
X799Y4698D03*
X799Y4798D03*
G54D15*
X999Y3248D03*
X999Y3148D03*
X999Y3048D03*
X999Y2948D03*
X999Y2848D03*
G54D16*
X599Y648D03*
X499Y648D03*
X949Y5598D03*
X849Y5598D03*
X749Y5598D03*
X649Y5598D03*
G54D17*
X1349Y2495D03*
G54D18*
X1349Y2298D03*
G54D17*
X1349Y4895D03*
G54D18*
X1349Y4698D03*
G54D17*
X1349Y4395D03*
G54D18*
X1349Y4198D03*
G54D17*
X1346Y248D03*
G54D18*
X1149Y248D03*
G54D16*
X349Y1298D03*
X449Y1298D03*
X549Y1298D03*
X649Y1298D03*
X749Y1298D03*
X849Y1298D03*
G54D19*
X749Y1548D03*
X749Y1948D03*
X599Y1548D03*
X599Y1948D03*
X449Y1548D03*
X449Y1948D03*
G54D20*
X540Y3143D03*
X60Y2543D03*
X924Y3839D03*
X492Y4319D03*
G54D21*
X799Y2248D03*
G54D22*
X599Y648D03*
X949Y5598D03*
X349Y1298D03*
G04 End of Mask1*
M02*