G04 MADE WITH FRITZING*
G04 WWW.FRITZING.ORG*
G04 DOUBLE SIDED*
G04 HOLES PLATED*
G04 CONTOUR ON CENTER OF CONTOUR VECTOR*
%ASAXBY*%
%FSLAX23Y23*%
%MOIN*%
%OFA0B0*%
%SFA1.0B1.0*%
%ADD10C,0.078000*%
%ADD11C,0.039370*%
%ADD12C,0.075000*%
%ADD13C,0.070000*%
%ADD14C,0.138425*%
%ADD15C,0.086000*%
%ADD16C,0.076000*%
%ADD17C,0.073379*%
%ADD18C,0.087268*%
%ADD19C,0.087253*%
%ADD20R,0.078000X0.078000*%
%ADD21R,0.069972X0.070000*%
%ADD22C,0.024000*%
%LNCOPPER0*%
G90*
G70*
G54D10*
X699Y3897D03*
X599Y3897D03*
X499Y3897D03*
X399Y3897D03*
X299Y3897D03*
G54D11*
X708Y6605D03*
X324Y5309D03*
X588Y5621D03*
X996Y5285D03*
X1212Y6605D03*
X1044Y6533D03*
X588Y6557D03*
X588Y6965D03*
X1236Y6341D03*
G54D10*
X249Y3197D03*
X349Y3197D03*
X449Y3197D03*
X549Y3197D03*
X649Y3197D03*
G54D12*
X449Y3397D03*
X849Y3397D03*
G54D10*
X349Y4447D03*
X449Y4447D03*
X549Y4447D03*
X649Y4447D03*
X749Y4447D03*
X849Y4447D03*
G54D12*
X449Y5097D03*
X449Y4697D03*
X599Y5097D03*
X599Y4697D03*
X749Y5097D03*
X749Y4697D03*
G54D13*
X1234Y4383D03*
X1093Y4241D03*
X1434Y4383D03*
X1293Y4241D03*
X1049Y7897D03*
X1049Y8097D03*
X1049Y7547D03*
X1049Y7347D03*
X849Y5397D03*
X849Y5497D03*
X849Y5597D03*
X849Y5697D03*
X849Y5797D03*
X849Y5897D03*
X849Y5997D03*
X849Y6097D03*
X849Y6197D03*
X849Y6297D03*
X849Y6397D03*
X849Y6497D03*
X849Y6597D03*
X849Y6697D03*
X849Y6797D03*
X249Y5397D03*
X249Y5497D03*
X249Y5597D03*
X249Y5697D03*
X249Y5797D03*
X249Y5897D03*
X249Y5997D03*
X249Y6097D03*
X249Y6197D03*
X249Y6297D03*
X249Y6397D03*
X249Y6497D03*
X249Y6597D03*
X249Y6697D03*
X249Y6797D03*
G54D14*
X749Y8122D03*
G54D15*
X398Y8082D03*
X536Y8082D03*
G54D16*
X199Y8147D03*
X199Y8047D03*
X199Y7947D03*
X199Y7847D03*
X199Y7747D03*
X199Y7647D03*
X199Y7547D03*
G54D14*
X749Y7272D03*
G54D16*
X199Y7447D03*
X199Y7347D03*
X199Y7247D03*
G54D13*
X799Y7447D03*
X799Y7547D03*
X799Y7647D03*
X799Y7747D03*
X799Y7847D03*
X799Y7947D03*
G54D17*
X1049Y6397D03*
X1049Y6297D03*
X1049Y6197D03*
X1049Y6097D03*
X1049Y5997D03*
G54D10*
X949Y8747D03*
X849Y8747D03*
X749Y8747D03*
X649Y8747D03*
G54D18*
X1180Y5069D03*
G54D19*
X1377Y5069D03*
G54D18*
X1377Y5476D03*
G54D19*
X1180Y5476D03*
G54D18*
X1349Y8097D03*
G54D19*
X1349Y7900D03*
G54D18*
X1349Y7544D03*
G54D19*
X1349Y7347D03*
G54D18*
X1384Y3883D03*
G54D19*
X1187Y3883D03*
G54D20*
X699Y3897D03*
X249Y3197D03*
X349Y4447D03*
G54D21*
X849Y5397D03*
G54D20*
X949Y8747D03*
G54D22*
X749Y4466D02*
X749Y4680D01*
D02*
X449Y4680D02*
X449Y4466D01*
D02*
X867Y6197D02*
X1027Y6197D01*
D02*
X867Y6097D02*
X1027Y6097D01*
D02*
X449Y3216D02*
X449Y3380D01*
D02*
X817Y7440D02*
X1035Y7353D01*
D02*
X1326Y7347D02*
X1064Y7347D01*
D02*
X1326Y7544D02*
X1064Y7547D01*
D02*
X448Y5115D02*
X444Y5333D01*
D02*
X444Y5333D02*
X262Y5486D01*
D02*
X818Y7851D02*
X1034Y7894D01*
D02*
X1326Y7900D02*
X1064Y7897D01*
D02*
X1036Y8090D02*
X816Y7958D01*
D02*
X1326Y8097D02*
X1064Y8097D01*
D02*
X750Y5115D02*
X780Y5669D01*
D02*
X780Y5669D02*
X832Y5690D01*
D02*
X596Y4715D02*
X588Y4757D01*
D02*
X588Y4757D02*
X828Y4757D01*
D02*
X828Y4757D02*
X847Y4466D01*
D02*
X235Y6410D02*
X180Y6461D01*
D02*
X180Y6461D02*
X180Y7181D01*
D02*
X180Y7181D02*
X276Y7205D01*
D02*
X276Y7205D02*
X276Y7301D01*
D02*
X276Y7301D02*
X216Y7337D01*
D02*
X234Y6208D02*
X180Y6245D01*
D02*
X180Y6245D02*
X180Y6389D01*
D02*
X180Y6389D02*
X132Y6413D01*
D02*
X132Y6413D02*
X132Y7421D01*
D02*
X132Y7421D02*
X180Y7440D01*
D02*
X184Y7634D02*
X84Y7541D01*
X84Y7541D02*
X84Y6365D01*
X84Y6365D02*
X132Y6341D01*
D02*
X132Y6341D02*
X132Y6197D01*
D02*
X132Y6197D02*
X180Y6197D01*
D02*
X180Y6197D02*
X180Y5957D01*
D02*
X180Y5957D02*
X235Y5909D01*
D02*
X639Y4464D02*
X540Y4637D01*
D02*
X540Y4637D02*
X540Y5165D01*
D02*
X540Y5165D02*
X660Y5165D01*
D02*
X660Y5165D02*
X660Y5021D01*
D02*
X660Y5021D02*
X780Y5021D01*
D02*
X780Y5021D02*
X828Y5069D01*
D02*
X828Y5069D02*
X828Y5333D01*
D02*
X828Y5333D02*
X924Y5333D01*
D02*
X924Y5333D02*
X924Y5453D01*
D02*
X924Y5453D02*
X864Y5488D01*
D02*
X555Y3215D02*
X780Y3821D01*
D02*
X780Y3821D02*
X660Y4421D01*
D02*
X660Y4421D02*
X656Y4430D01*
D02*
X346Y3216D02*
X240Y3845D01*
D02*
X240Y3845D02*
X36Y6317D01*
X36Y6317D02*
X36Y8213D01*
X36Y8213D02*
X252Y8213D01*
D02*
X252Y8213D02*
X324Y7349D01*
D02*
X324Y7349D02*
X324Y6845D01*
D02*
X324Y6845D02*
X264Y6807D01*
D02*
X865Y6404D02*
X996Y6461D01*
D02*
X996Y6461D02*
X1116Y6461D01*
X1116Y6461D02*
X1093Y4256D01*
D02*
X834Y6307D02*
X780Y6341D01*
D02*
X780Y6341D02*
X780Y6845D01*
D02*
X780Y6845D02*
X804Y6869D01*
D02*
X804Y6869D02*
X1020Y6869D01*
X1020Y6869D02*
X1164Y6533D01*
X1164Y6533D02*
X1176Y5981D01*
X1176Y5981D02*
X1296Y5861D01*
X1296Y5861D02*
X1293Y4256D01*
D02*
X703Y6599D02*
X261Y6111D01*
D02*
X318Y3897D02*
X380Y3897D01*
D02*
X324Y5301D02*
X276Y4373D01*
D02*
X276Y4373D02*
X588Y3913D01*
D02*
X261Y5984D02*
X583Y5627D01*
D02*
X850Y3415D02*
X995Y5277D01*
D02*
X1210Y6612D02*
X1140Y6917D01*
X1140Y6917D02*
X756Y6917D01*
D02*
X756Y6917D02*
X265Y6704D01*
D02*
X1036Y6531D02*
X866Y6501D01*
D02*
X1377Y5091D02*
X1377Y5453D01*
D02*
X1182Y5046D02*
X1233Y4398D01*
D02*
X1180Y5453D02*
X1181Y5091D01*
D02*
X266Y6500D02*
X580Y6555D01*
D02*
X596Y6965D02*
X708Y6965D01*
D02*
X708Y6965D02*
X1212Y6965D01*
X1212Y6965D02*
X1284Y6533D01*
X1284Y6533D02*
X1238Y6348D01*
D02*
X784Y7634D02*
X660Y7517D01*
D02*
X660Y7517D02*
X660Y7205D01*
D02*
X660Y7205D02*
X708Y6965D01*
G04 End of Copper0*
M02*