G04 MADE WITH FRITZING*
G04 WWW.FRITZING.ORG*
G04 DOUBLE SIDED*
G04 HOLES PLATED*
G04 CONTOUR ON CENTER OF CONTOUR VECTOR*
%ASAXBY*%
%FSLAX23Y23*%
%MOIN*%
%OFA0B0*%
%SFA1.0B1.0*%
%ADD10C,0.078000*%
%ADD11C,0.080000*%
%ADD12C,0.070000*%
%ADD13C,0.138425*%
%ADD14C,0.086000*%
%ADD15C,0.076000*%
%ADD16C,0.039370*%
%ADD17R,0.143667X0.078000*%
%ADD18R,0.144000X0.078000*%
%ADD19R,0.078000X0.144000*%
%ADD20R,0.078000X0.078000*%
%ADD21C,0.024000*%
%LNCOPPER0*%
G90*
G70*
G54D10*
X1387Y1468D03*
X1387Y1568D03*
X1387Y1668D03*
X1387Y1768D03*
X1387Y1868D03*
X1387Y1968D03*
X1387Y2068D03*
X1387Y2168D03*
X1387Y2268D03*
X1387Y2368D03*
X1387Y2468D03*
X1387Y2568D03*
X1387Y2668D03*
X1387Y2768D03*
X1387Y2868D03*
X1387Y2968D03*
X1387Y3068D03*
X1387Y3168D03*
X1387Y3268D03*
X1387Y3368D03*
X688Y3368D03*
X688Y3268D03*
X688Y3168D03*
X688Y3068D03*
X688Y2968D03*
X688Y2868D03*
X688Y2768D03*
X688Y2668D03*
X688Y2568D03*
X688Y2468D03*
X688Y2368D03*
X688Y2268D03*
X688Y2168D03*
X688Y2068D03*
X688Y1968D03*
X688Y1868D03*
X688Y1768D03*
X688Y1668D03*
X688Y1568D03*
X688Y1468D03*
X1138Y3368D03*
X1038Y3368D03*
X938Y3368D03*
G54D11*
X1770Y6793D03*
X1770Y6989D03*
X392Y6993D03*
X392Y6796D03*
G54D10*
X1869Y2567D03*
X1869Y2467D03*
X1869Y2367D03*
X1869Y2267D03*
X1869Y2167D03*
X2072Y887D03*
X1972Y887D03*
X1872Y887D03*
X1772Y887D03*
X1672Y887D03*
X392Y2070D03*
X392Y2170D03*
X392Y2270D03*
X392Y2370D03*
X392Y2470D03*
X392Y2570D03*
G54D12*
X589Y6993D03*
X589Y6793D03*
X1574Y6993D03*
X1574Y6793D03*
G54D10*
X1235Y8466D03*
X1135Y8466D03*
X1035Y8466D03*
X935Y8466D03*
X1672Y3554D03*
X1672Y3454D03*
X1672Y3354D03*
X1672Y3254D03*
X1672Y3154D03*
X1672Y3054D03*
X1672Y2954D03*
X1672Y2854D03*
G54D13*
X711Y6457D03*
G54D14*
X751Y6106D03*
X751Y6244D03*
G54D15*
X686Y5907D03*
X786Y5907D03*
X886Y5907D03*
X986Y5907D03*
X1086Y5907D03*
X1186Y5907D03*
X1286Y5907D03*
G54D13*
X1561Y6457D03*
G54D15*
X1386Y5907D03*
X1486Y5907D03*
X1586Y5907D03*
G54D12*
X1386Y6507D03*
X1286Y6507D03*
X1186Y6507D03*
X1086Y6507D03*
X986Y6507D03*
X886Y6507D03*
G54D16*
X852Y2789D03*
X996Y2909D03*
X1284Y3125D03*
X1308Y3749D03*
X1260Y3965D03*
X804Y3341D03*
X1716Y4109D03*
X1380Y3701D03*
X252Y2261D03*
X588Y3725D03*
X996Y6725D03*
G54D17*
X1420Y1469D03*
G54D18*
X1420Y1569D03*
X1420Y1669D03*
X1420Y1769D03*
X1420Y1869D03*
X1420Y1969D03*
X1420Y2069D03*
X1420Y2169D03*
X1420Y2269D03*
X1420Y2369D03*
X1420Y2469D03*
X1420Y2569D03*
X1420Y2669D03*
X1420Y2769D03*
X1420Y2869D03*
X1420Y2969D03*
X1420Y3069D03*
X1420Y3169D03*
X1420Y3269D03*
X1420Y3369D03*
X655Y3369D03*
X655Y3269D03*
X655Y3169D03*
X655Y3069D03*
X655Y2969D03*
X655Y2869D03*
X655Y2769D03*
X655Y2669D03*
X655Y2569D03*
X655Y2469D03*
X655Y2369D03*
X655Y2269D03*
X655Y2169D03*
X655Y2069D03*
X655Y1969D03*
X655Y1869D03*
X655Y1769D03*
X655Y1669D03*
X655Y1569D03*
X655Y1469D03*
G54D19*
X1138Y3393D03*
X1038Y3393D03*
X938Y3393D03*
G54D20*
X1869Y2567D03*
X2072Y887D03*
X392Y2070D03*
X1235Y8466D03*
X1672Y3554D03*
G54D21*
X1747Y6793D02*
X1589Y6793D01*
D02*
X416Y6795D02*
X574Y6793D01*
D02*
X872Y6521D02*
X600Y6782D01*
D02*
X1406Y3367D02*
X1653Y3355D01*
D02*
X1406Y1564D02*
X1524Y1541D01*
X1524Y1541D02*
X1961Y903D01*
D02*
X1747Y6990D02*
X1589Y6992D01*
D02*
X1296Y6524D02*
X1566Y6980D01*
D02*
X416Y6993D02*
X574Y6993D01*
D02*
X973Y6522D02*
X599Y6981D01*
D02*
X705Y2860D02*
X845Y2792D01*
D02*
X706Y2965D02*
X988Y2910D01*
D02*
X706Y3264D02*
X1276Y3127D01*
D02*
X701Y3382D02*
X948Y3629D01*
X948Y3629D02*
X1308Y3629D01*
X1308Y3629D02*
X1308Y3741D01*
D02*
X669Y3072D02*
X540Y3101D01*
X540Y3101D02*
X540Y3437D01*
X540Y3437D02*
X660Y3437D01*
X660Y3437D02*
X900Y3677D01*
X900Y3677D02*
X1260Y3677D01*
X1260Y3677D02*
X1260Y3957D01*
D02*
X1406Y3063D02*
X1524Y3029D01*
X1524Y3029D02*
X1620Y2789D01*
X1620Y2789D02*
X1740Y2789D01*
X1740Y2789D02*
X1740Y3629D01*
X1740Y3629D02*
X1212Y3581D01*
X1212Y3581D02*
X1212Y3293D01*
X1212Y3293D02*
X804Y3293D01*
X804Y3293D02*
X804Y3333D01*
D02*
X669Y1471D02*
X540Y1493D01*
X540Y1493D02*
X492Y3485D01*
X492Y3485D02*
X612Y3485D01*
X612Y3485D02*
X852Y3725D01*
X852Y3725D02*
X1212Y3725D01*
X1212Y3725D02*
X1212Y4013D01*
X1212Y4013D02*
X1708Y4107D01*
D02*
X1759Y901D02*
X1188Y1541D01*
X1188Y1541D02*
X1068Y1541D01*
X1068Y1541D02*
X1068Y1589D01*
X1068Y1589D02*
X703Y1857D01*
D02*
X1388Y3701D02*
X1764Y3701D01*
X1764Y3701D02*
X1764Y4157D01*
X1764Y4157D02*
X1452Y4157D01*
X1452Y4157D02*
X1164Y4085D01*
X1164Y4085D02*
X564Y3557D01*
X564Y3557D02*
X444Y3557D01*
X444Y3557D02*
X324Y2645D01*
X324Y2645D02*
X324Y2405D01*
X324Y2405D02*
X376Y2378D01*
D02*
X790Y5888D02*
X1164Y4085D01*
D02*
X373Y2269D02*
X260Y2261D01*
D02*
X1653Y3453D02*
X1308Y3437D01*
X1308Y3437D02*
X1308Y3197D01*
X1308Y3197D02*
X1369Y3175D01*
D02*
X1850Y2571D02*
X1406Y2664D01*
D02*
X764Y6228D02*
X828Y6149D01*
X828Y6149D02*
X828Y5981D01*
X828Y5981D02*
X636Y5969D01*
X636Y5969D02*
X624Y5957D01*
X624Y5957D02*
X588Y3733D01*
D02*
X999Y6718D02*
X1078Y6525D01*
G04 End of Copper0*
M02*