G04 MADE WITH FRITZING*
G04 WWW.FRITZING.ORG*
G04 DOUBLE SIDED*
G04 HOLES PLATED*
G04 CONTOUR ON CENTER OF CONTOUR VECTOR*
%ASAXBY*%
%FSLAX23Y23*%
%MOIN*%
%OFA0B0*%
%SFA1.0B1.0*%
%ADD10C,0.070000*%
%ADD11C,0.138425*%
%ADD12C,0.086000*%
%ADD13C,0.076000*%
%ADD14C,0.073379*%
%ADD15C,0.078000*%
%ADD16C,0.087268*%
%ADD17C,0.087253*%
%ADD18C,0.039370*%
%ADD19R,0.069972X0.070000*%
%ADD20R,0.078000X0.078000*%
%ADD21C,0.024000*%
%ADD22C,0.048000*%
%LNCOPPER0*%
G90*
G70*
G54D10*
X799Y1248D03*
X799Y1348D03*
X799Y1448D03*
X799Y1548D03*
X799Y1648D03*
X799Y1748D03*
X799Y1848D03*
X799Y1948D03*
X799Y2048D03*
X799Y2148D03*
X799Y2248D03*
X799Y2348D03*
X799Y2448D03*
X799Y2548D03*
X799Y2648D03*
X199Y1248D03*
X199Y1348D03*
X199Y1448D03*
X199Y1548D03*
X199Y1648D03*
X199Y1748D03*
X199Y1848D03*
X199Y1948D03*
X199Y2048D03*
X199Y2148D03*
X199Y2248D03*
X199Y2348D03*
X199Y2448D03*
X199Y2548D03*
X199Y2648D03*
G54D11*
X749Y3873D03*
G54D12*
X398Y3833D03*
X536Y3833D03*
G54D13*
X199Y3898D03*
X199Y3798D03*
X199Y3698D03*
X199Y3598D03*
X199Y3498D03*
X199Y3398D03*
X199Y3298D03*
G54D11*
X749Y3023D03*
G54D13*
X199Y3198D03*
X199Y3098D03*
X199Y2998D03*
G54D10*
X799Y3198D03*
X799Y3298D03*
X799Y3398D03*
X799Y3498D03*
X799Y3598D03*
X799Y3698D03*
G54D14*
X1020Y468D03*
X1120Y468D03*
X1220Y468D03*
X1320Y468D03*
X1420Y468D03*
G54D15*
X1199Y1348D03*
X1199Y1448D03*
X949Y5898D03*
X849Y5898D03*
X749Y5898D03*
X649Y5898D03*
G54D16*
X1199Y2351D03*
G54D17*
X1199Y2548D03*
G54D16*
X1199Y4101D03*
G54D17*
X1199Y4298D03*
G54D16*
X1199Y3601D03*
G54D17*
X1199Y3798D03*
G54D16*
X1199Y3101D03*
G54D17*
X1199Y3298D03*
G54D16*
X252Y598D03*
G54D17*
X449Y598D03*
G54D18*
X684Y2759D03*
X684Y1055D03*
X60Y2735D03*
X828Y5615D03*
G54D19*
X799Y1248D03*
G54D20*
X1199Y1348D03*
X949Y5898D03*
G54D21*
X180Y3090D02*
X132Y3071D01*
X132Y3071D02*
X132Y2303D01*
X132Y2303D02*
X185Y2259D01*
G54D22*
D02*
X416Y3841D02*
X468Y3863D01*
X468Y3863D02*
X468Y3911D01*
X468Y3911D02*
X900Y4007D01*
X900Y4007D02*
X1183Y4282D01*
G54D21*
D02*
X213Y2059D02*
X276Y2111D01*
X276Y2111D02*
X276Y3167D01*
X276Y3167D02*
X217Y3190D01*
D02*
X1215Y489D02*
X840Y2015D01*
X840Y2015D02*
X828Y2015D01*
X828Y2015D02*
X811Y2034D01*
D02*
X1315Y489D02*
X948Y2015D01*
X948Y2015D02*
X948Y2711D01*
X948Y2711D02*
X756Y2711D01*
X756Y2711D02*
X732Y2687D01*
X732Y2687D02*
X732Y1991D01*
X732Y1991D02*
X784Y1958D01*
D02*
X1189Y2527D02*
X1140Y2423D01*
X1140Y2423D02*
X1116Y2399D01*
X1116Y2399D02*
X1128Y1943D01*
X1128Y1943D02*
X1224Y1847D01*
X1224Y1847D02*
X1356Y527D01*
X1356Y527D02*
X1476Y527D01*
X1476Y527D02*
X1476Y407D01*
X1476Y407D02*
X1164Y407D01*
X1164Y407D02*
X1133Y450D01*
D02*
X813Y3383D02*
X1164Y3023D01*
X1164Y3023D02*
X1197Y2570D01*
G54D22*
D02*
X1182Y4086D02*
X804Y3767D01*
X804Y3767D02*
X555Y3828D01*
G54D21*
D02*
X692Y2759D02*
X996Y2759D01*
X996Y2759D02*
X1140Y2423D01*
D02*
X663Y5885D02*
X1284Y5303D01*
X1284Y5303D02*
X1284Y4271D01*
X1284Y4271D02*
X1209Y4121D01*
D02*
X679Y1049D02*
X267Y614D01*
D02*
X1035Y452D02*
X1116Y359D01*
X1116Y359D02*
X1524Y359D01*
X1524Y359D02*
X1524Y575D01*
X1524Y575D02*
X1203Y2329D01*
D02*
X214Y3485D02*
X276Y3431D01*
X276Y3431D02*
X324Y3215D01*
X324Y3215D02*
X324Y1751D01*
X324Y1751D02*
X213Y1659D01*
D02*
X214Y3585D02*
X372Y3455D01*
X372Y3455D02*
X372Y1703D01*
X372Y1703D02*
X209Y1463D01*
D02*
X60Y2727D02*
X60Y1943D01*
X60Y1943D02*
X181Y1947D01*
D02*
X826Y5608D02*
X324Y3887D01*
X324Y3887D02*
X324Y3575D01*
X324Y3575D02*
X420Y3503D01*
X420Y3503D02*
X420Y1199D01*
X420Y1199D02*
X156Y1187D01*
X156Y1187D02*
X132Y1199D01*
X132Y1199D02*
X132Y1823D01*
X132Y1823D02*
X182Y1842D01*
G04 End of Copper0*
M02*