G04 MADE WITH FRITZING*
G04 WWW.FRITZING.ORG*
G04 DOUBLE SIDED*
G04 HOLES PLATED*
G04 CONTOUR ON CENTER OF CONTOUR VECTOR*
%ASAXBY*%
%FSLAX23Y23*%
%MOIN*%
%OFA0B0*%
%SFA1.0B1.0*%
%ADD10C,0.070000*%
%ADD11C,0.138425*%
%ADD12C,0.086000*%
%ADD13C,0.076000*%
%ADD14C,0.073379*%
%ADD15C,0.078000*%
%ADD16C,0.087268*%
%ADD17C,0.087253*%
%ADD18C,0.075000*%
%ADD19C,0.039370*%
%ADD20R,0.069972X0.070000*%
%ADD21R,0.078000X0.078000*%
%ADD22C,0.024000*%
%LNCOPPER1*%
G90*
G70*
G54D10*
X1184Y1683D03*
X1113Y1612D03*
X1384Y1683D03*
X1313Y1612D03*
X999Y4698D03*
X999Y4798D03*
X999Y4398D03*
X999Y4298D03*
X799Y2248D03*
X799Y2348D03*
X799Y2448D03*
X799Y2548D03*
X799Y2648D03*
X799Y2748D03*
X799Y2848D03*
X799Y2948D03*
X799Y3048D03*
X799Y3148D03*
X799Y3248D03*
X799Y3348D03*
X799Y3448D03*
X799Y3548D03*
X799Y3648D03*
X199Y2248D03*
X199Y2348D03*
X199Y2448D03*
X199Y2548D03*
X199Y2648D03*
X199Y2748D03*
X199Y2848D03*
X199Y2948D03*
X199Y3048D03*
X199Y3148D03*
X199Y3248D03*
X199Y3348D03*
X199Y3448D03*
X199Y3548D03*
X199Y3648D03*
G54D11*
X749Y4973D03*
G54D12*
X398Y4933D03*
X536Y4933D03*
G54D13*
X199Y4998D03*
X199Y4898D03*
X199Y4798D03*
X199Y4698D03*
X199Y4598D03*
X199Y4498D03*
X199Y4398D03*
G54D11*
X749Y4123D03*
G54D13*
X199Y4298D03*
X199Y4198D03*
X199Y4098D03*
G54D10*
X799Y4298D03*
X799Y4398D03*
X799Y4498D03*
X799Y4598D03*
X799Y4698D03*
X799Y4798D03*
G54D14*
X999Y3248D03*
X999Y3148D03*
X999Y3048D03*
X999Y2948D03*
X999Y2848D03*
G54D15*
X599Y648D03*
X499Y648D03*
X949Y5598D03*
X849Y5598D03*
X749Y5598D03*
X649Y5598D03*
G54D16*
X1349Y2495D03*
G54D17*
X1349Y2298D03*
G54D16*
X1349Y4895D03*
G54D17*
X1349Y4698D03*
G54D16*
X1349Y4395D03*
G54D17*
X1349Y4198D03*
G54D16*
X1346Y248D03*
G54D17*
X1149Y248D03*
G54D15*
X349Y1298D03*
X449Y1298D03*
X549Y1298D03*
X649Y1298D03*
X749Y1298D03*
X849Y1298D03*
G54D18*
X749Y1548D03*
X749Y1948D03*
X599Y1548D03*
X599Y1948D03*
X449Y1548D03*
X449Y1948D03*
G54D19*
X540Y3143D03*
X60Y2543D03*
X924Y3839D03*
X492Y4319D03*
G54D20*
X799Y2248D03*
G54D21*
X599Y648D03*
X949Y5598D03*
X349Y1298D03*
G54D22*
X1449Y4598D02*
X1449Y5748D01*
D02*
X1449Y5748D02*
X649Y5748D01*
D02*
X649Y5748D02*
X649Y5617D01*
D02*
X819Y4598D02*
X1449Y4598D01*
D02*
X799Y4518D02*
X799Y4578D01*
D02*
X819Y4398D02*
X984Y4398D01*
D02*
X984Y4798D02*
X819Y4798D01*
D02*
X1327Y4204D02*
X1013Y4294D01*
D02*
X449Y1317D02*
X449Y1530D01*
D02*
X215Y3256D02*
X276Y3287D01*
X276Y3287D02*
X276Y4127D01*
X276Y4127D02*
X213Y4184D01*
D02*
X835Y1311D02*
X611Y1535D01*
D02*
X792Y2221D02*
X756Y2087D01*
X756Y2087D02*
X612Y1959D01*
D02*
X784Y2338D02*
X732Y2303D01*
X732Y2303D02*
X540Y2015D01*
X540Y2015D02*
X540Y1487D01*
X540Y1487D02*
X639Y1314D01*
D02*
X195Y4078D02*
X132Y3695D01*
X132Y3695D02*
X132Y2591D01*
X132Y2591D02*
X184Y2558D01*
D02*
X212Y2759D02*
X324Y2855D01*
X324Y2855D02*
X324Y4175D01*
X324Y4175D02*
X276Y4199D01*
X276Y4199D02*
X276Y4439D01*
X276Y4439D02*
X214Y4486D01*
D02*
X213Y2659D02*
X372Y2783D01*
X372Y2783D02*
X372Y4223D01*
X372Y4223D02*
X324Y4247D01*
X324Y4247D02*
X324Y4487D01*
X324Y4487D02*
X213Y4585D01*
D02*
X212Y2459D02*
X420Y2639D01*
X420Y2639D02*
X420Y4271D01*
X420Y4271D02*
X372Y4295D01*
X372Y4295D02*
X372Y4535D01*
X372Y4535D02*
X213Y4684D01*
D02*
X62Y2536D02*
X156Y2183D01*
X156Y2183D02*
X468Y2183D01*
X468Y2183D02*
X468Y3215D01*
X468Y3215D02*
X660Y5039D01*
X660Y5039D02*
X746Y5579D01*
D02*
X541Y3151D02*
X732Y4847D01*
X732Y4847D02*
X852Y4871D01*
X852Y4871D02*
X849Y5579D01*
D02*
X979Y3257D02*
X815Y3340D01*
D02*
X1346Y2517D02*
X1320Y2735D01*
X1320Y2735D02*
X1212Y2831D01*
X1212Y2831D02*
X1212Y3047D01*
X1212Y3047D02*
X1014Y3233D01*
D02*
X213Y4885D02*
X228Y4871D01*
X228Y4871D02*
X420Y4583D01*
X420Y4583D02*
X490Y4327D01*
D02*
X1199Y1683D02*
X1369Y1683D01*
D02*
X1350Y2275D02*
X1383Y1698D01*
D02*
X558Y1281D02*
X564Y1271D01*
X564Y1271D02*
X612Y1223D01*
X612Y1223D02*
X924Y1223D01*
X924Y1223D02*
X1068Y1679D01*
X1068Y1679D02*
X1169Y1683D01*
D02*
X598Y667D02*
X564Y1271D01*
D02*
X1015Y3133D02*
X1164Y2999D01*
X1164Y2999D02*
X1164Y2783D01*
X1164Y2783D02*
X1284Y2423D01*
X1284Y2423D02*
X1338Y2318D01*
D02*
X927Y3832D02*
X1380Y2807D01*
X1380Y2807D02*
X1416Y2447D01*
X1416Y2447D02*
X1404Y2435D01*
X1404Y2435D02*
X1284Y2423D01*
G04 End of Copper1*
M02*